<svg width="854" height="301" viewBox="0 0 854 301" fill="none" xmlns="http://www.w3.org/2000/svg">
<rect y="9" width="854" height="292" rx="21" fill="#111111"/>
<path d="M444.415 135.15C436.212 135.15 428.66 133.233 421.76 129.4C414.86 125.49 409.417 120.123 405.43 113.3C401.443 106.4 399.45 98.7333 399.45 90.3C399.45 81.4067 401.443 73.5483 405.43 66.725C409.417 59.9017 414.783 54.65 421.53 50.97C428.277 47.2133 435.675 45.335 443.725 45.335C451.468 45.335 457.985 46.715 463.275 49.475C468.642 52.1583 473.702 55.9533 478.455 60.86C478.608 61.0133 478.838 61.09 479.145 61.09C479.605 61.09 480.41 60.745 481.56 60.055L482.94 61.78L467.07 74.315L465.69 72.59C466.15 72.2833 466.495 71.9 466.725 71.44C467.032 70.9033 467.032 70.52 466.725 70.29C463.505 67.1467 460.132 64.77 456.605 63.16C453.155 61.4733 448.938 60.63 443.955 60.63C438.742 60.63 433.95 61.9333 429.58 64.54C425.21 67.07 421.76 70.5967 419.23 75.12C416.7 79.6433 415.435 84.7033 415.435 90.3C415.435 95.6667 416.777 100.573 419.46 105.02C422.143 109.39 425.708 112.84 430.155 115.37C434.602 117.9 439.355 119.165 444.415 119.165C449.168 119.165 453.232 118.36 456.605 116.75C459.978 115.063 463.16 112.572 466.15 109.275L466.38 108.815C466.38 108.432 466.188 108.01 465.805 107.55C465.498 107.013 465.153 106.63 464.77 106.4L466.265 104.79L483.4 119.165L482.02 120.89C481.56 120.507 480.985 120.162 480.295 119.855C479.605 119.548 479.145 119.548 478.915 119.855C474.085 125.068 469.025 128.94 463.735 131.47C458.445 133.923 452.005 135.15 444.415 135.15ZM516.71 135.38C511.036 135.38 506.015 134.192 501.645 131.815C497.351 129.362 493.978 126.027 491.525 121.81C489.148 117.593 487.96 112.84 487.96 107.55C487.96 102.337 489.148 97.5833 491.525 93.29C493.978 88.9967 497.39 85.6233 501.76 83.17C506.13 80.64 511.113 79.375 516.71 79.375C522.076 79.375 526.945 80.6017 531.315 83.055C535.685 85.4317 539.135 88.7667 541.665 93.06C544.195 97.2767 545.46 102.107 545.46 107.55C545.46 112.303 544.31 116.827 542.01 121.12C539.786 125.337 536.49 128.787 532.12 131.47C527.75 134.077 522.613 135.38 516.71 135.38ZM516.71 122.155C521.233 122.155 524.875 120.852 527.635 118.245C530.471 115.562 531.89 112.112 531.89 107.895C531.89 103.525 530.471 99.9217 527.635 97.085C524.875 94.2483 521.233 92.83 516.71 92.83C512.493 92.83 508.966 94.2483 506.13 97.085C503.293 99.845 501.875 103.333 501.875 107.55C501.875 111.997 503.293 115.562 506.13 118.245C508.966 120.852 512.493 122.155 516.71 122.155ZM613.346 130.55C613.346 130.933 613.614 131.24 614.151 131.47C614.764 131.7 615.339 131.815 615.876 131.815V134H599.431V129.975C594.831 133.732 589.349 135.61 582.986 135.61C577.312 135.61 572.252 134.46 567.806 132.16C563.359 129.86 559.871 126.602 557.341 122.385C554.811 118.168 553.546 113.3 553.546 107.78C553.546 102.183 554.811 97.2383 557.341 92.945C559.947 88.575 563.474 85.2017 567.921 82.825C572.444 80.3717 577.466 79.145 582.986 79.145C589.349 79.145 594.831 80.9467 599.431 84.55V51.2C599.431 50.8167 599.162 50.51 598.626 50.28C598.089 50.05 597.552 49.935 597.016 49.935V47.75H615.761V49.935C615.224 49.935 614.687 50.05 614.151 50.28C613.614 50.51 613.346 50.8167 613.346 51.2V130.55ZM583.676 123.305C586.666 123.305 589.387 122.615 591.841 121.235C594.371 119.855 596.326 118.015 597.706 115.715C599.162 113.338 599.891 110.847 599.891 108.24C599.891 103.563 598.357 99.73 595.291 96.74C592.301 93.6733 588.429 92.14 583.676 92.14C578.922 92.14 575.012 93.635 571.946 96.625C568.956 99.5383 567.461 103.333 567.461 108.01C567.461 112.687 568.994 116.405 572.061 119.165C575.204 121.925 579.076 123.305 583.676 123.305ZM653.705 78.685C659.608 78.685 664.707 79.9883 669 82.595C673.293 85.125 676.552 88.575 678.775 92.945C680.998 97.315 682.11 102.145 682.11 107.435C682.11 109.045 681.995 110.655 681.765 112.265H639.675C639.982 115.945 641.592 118.82 644.505 120.89C647.418 122.96 650.907 123.995 654.97 123.995C657.73 123.995 660.03 123.612 661.87 122.845C663.787 122.078 665.473 120.928 666.93 119.395C667.083 119.088 667.16 118.897 667.16 118.82C667.16 118.513 667.045 118.207 666.815 117.9C666.585 117.517 666.355 117.248 666.125 117.095L667.505 115.37L680.27 125.375L679.005 127.1C677.855 126.41 677.05 126.333 676.59 126.87C671.223 133.31 664.017 136.53 654.97 136.53C649.143 136.53 644.007 135.265 639.56 132.735C635.113 130.128 631.663 126.678 629.21 122.385C626.833 118.015 625.645 113.185 625.645 107.895C625.645 102.298 626.833 97.2767 629.21 92.83C631.587 88.3833 634.883 84.9333 639.1 82.48C643.393 79.95 648.262 78.685 653.705 78.685ZM668.31 101.57C668.003 98.4267 666.393 95.7817 663.48 93.635C660.643 91.4117 657.423 90.3 653.82 90.3C650.217 90.3 647.112 91.4117 644.505 93.635C641.898 95.7817 640.327 98.4267 639.79 101.57H668.31Z" fill="white"/>
<path d="M341.825 232.185C335.232 232.185 329.098 230.652 323.425 227.585C317.752 224.442 312.27 220.148 306.98 214.705C306.827 214.552 306.635 214.475 306.405 214.475C305.715 214.475 304.948 214.897 304.105 215.74L302.61 214.13L318.595 199.065L320.09 200.675C319.63 201.058 319.208 201.595 318.825 202.285C318.442 202.975 318.365 203.473 318.595 203.78C325.725 212.827 333.507 217.35 341.94 217.35C344.853 217.35 347.46 216.775 349.76 215.625C352.137 214.475 353.977 213.018 355.28 211.255C356.583 209.415 357.235 207.537 357.235 205.62C357.235 201.097 353.287 197.378 345.39 194.465L331.245 189.175C325.572 187.105 321.125 184.268 317.905 180.665C314.762 177.062 313.19 172.73 313.19 167.67C313.19 162.687 314.34 158.355 316.64 154.675C319.017 150.918 322.352 148.043 326.645 146.05C330.938 144.057 335.922 143.06 341.595 143.06C346.962 143.06 351.447 143.903 355.05 145.59C358.73 147.2 362.64 149.692 366.78 153.065C366.857 153.142 367.01 153.18 367.24 153.18C367.623 153.18 368.045 153.065 368.505 152.835C369.042 152.528 369.463 152.222 369.77 151.915L371.265 153.41L357.005 167.44L355.51 165.83C355.893 165.447 356.162 165.025 356.315 164.565C356.545 164.028 356.507 163.645 356.2 163.415C351.217 159.428 346.272 157.435 341.365 157.435C337.455 157.435 334.35 158.355 332.05 160.195C329.75 161.958 328.6 164.22 328.6 166.98C328.6 169.433 329.213 171.312 330.44 172.615C331.743 173.918 333.698 175.03 336.305 175.95L350.22 181.01C355.05 182.773 359.075 184.652 362.295 186.645C365.515 188.562 368.083 191.13 370 194.35C371.917 197.493 372.875 201.442 372.875 206.195C372.875 210.795 371.648 215.088 369.195 219.075C366.818 222.985 363.253 226.167 358.5 228.62C353.823 230.997 348.265 232.185 341.825 232.185ZM439.585 226.55C439.585 226.933 439.853 227.24 440.39 227.47C441.003 227.7 441.617 227.815 442.23 227.815V230H421.99V227.815C422.603 227.815 423.178 227.7 423.715 227.47C424.328 227.24 424.635 226.933 424.635 226.55V202.63C424.635 198.72 423.677 195.385 421.76 192.625C419.843 189.788 416.968 188.37 413.135 188.37C409.225 188.37 406.043 189.673 403.59 192.28C401.213 194.887 400.025 198.643 400.025 203.55V226.55C400.025 226.933 400.293 227.24 400.83 227.47C401.443 227.7 402.057 227.815 402.67 227.815V230H382.545V227.815C383.158 227.815 383.733 227.7 384.27 227.47C384.883 227.24 385.19 226.933 385.19 226.55V180.55C385.19 180.167 384.883 179.86 384.27 179.63C383.733 179.4 383.197 179.285 382.66 179.285V177.1H400.025V181.815C402.018 179.975 404.357 178.557 407.04 177.56C409.8 176.487 412.598 175.95 415.435 175.95C420.342 175.95 424.597 176.985 428.2 179.055C431.88 181.125 434.678 183.923 436.595 187.45C438.588 190.9 439.585 194.772 439.585 199.065V226.55ZM464.463 167.44C462.009 167.44 459.901 166.597 458.138 164.91C456.451 163.223 455.608 161.115 455.608 158.585C455.608 156.208 456.451 154.177 458.138 152.49C459.901 150.727 462.009 149.845 464.463 149.845C466.916 149.845 468.986 150.727 470.673 152.49C472.359 154.177 473.203 156.208 473.203 158.585C473.203 161.115 472.359 163.223 470.673 164.91C468.986 166.597 466.916 167.44 464.463 167.44ZM456.988 180.55C456.988 180.167 456.681 179.86 456.068 179.63C455.531 179.4 454.994 179.285 454.458 179.285V177.1H474.238V179.285C473.701 179.285 473.126 179.4 472.513 179.63C471.976 179.86 471.708 180.167 471.708 180.55V226.55C471.708 226.933 471.976 227.24 472.513 227.47C473.126 227.7 473.701 227.815 474.238 227.815V230H454.458V227.815C454.994 227.815 455.531 227.7 456.068 227.47C456.681 227.24 456.988 226.933 456.988 226.55V180.55ZM521.272 175.72C526.715 175.72 531.583 176.908 535.877 179.285C540.17 181.585 543.505 184.882 545.882 189.175C548.335 193.392 549.562 198.26 549.562 203.78C549.562 209.377 548.335 214.283 545.882 218.5C543.505 222.717 540.132 225.975 535.762 228.275C531.468 230.575 526.523 231.725 520.927 231.725C514.563 231.725 508.852 229.578 503.792 225.285V260.015C503.792 260.398 504.06 260.705 504.597 260.935C505.21 261.165 505.785 261.28 506.322 261.28V263.465H486.887V261.28C487.423 261.28 487.96 261.165 488.497 260.935C489.11 260.705 489.417 260.398 489.417 260.015V180.55C489.417 180.167 489.11 179.86 488.497 179.63C487.96 179.4 487.423 179.285 486.887 179.285V177.1H503.792V181.93C509.005 177.79 514.832 175.72 521.272 175.72ZM519.777 219.42C524.3 219.42 528.095 218.04 531.162 215.28C534.228 212.52 535.762 208.763 535.762 204.01C535.762 199.41 534.267 195.653 531.277 192.74C528.287 189.75 524.453 188.255 519.777 188.255C514.947 188.255 510.998 189.75 507.932 192.74C504.942 195.653 503.447 199.448 503.447 204.125C503.447 206.732 504.137 209.223 505.517 211.6C506.973 213.977 508.928 215.893 511.382 217.35C513.912 218.73 516.71 219.42 519.777 219.42ZM593.708 175.72C599.152 175.72 604.02 176.908 608.313 179.285C612.607 181.585 615.942 184.882 618.318 189.175C620.772 193.392 621.998 198.26 621.998 203.78C621.998 209.377 620.772 214.283 618.318 218.5C615.942 222.717 612.568 225.975 608.198 228.275C603.905 230.575 598.96 231.725 593.363 231.725C587 231.725 581.288 229.578 576.228 225.285V260.015C576.228 260.398 576.497 260.705 577.033 260.935C577.647 261.165 578.222 261.28 578.758 261.28V263.465H559.323V261.28C559.86 261.28 560.397 261.165 560.933 260.935C561.547 260.705 561.853 260.398 561.853 260.015V180.55C561.853 180.167 561.547 179.86 560.933 179.63C560.397 179.4 559.86 179.285 559.323 179.285V177.1H576.228V181.93C581.442 177.79 587.268 175.72 593.708 175.72ZM592.213 219.42C596.737 219.42 600.532 218.04 603.598 215.28C606.665 212.52 608.198 208.763 608.198 204.01C608.198 199.41 606.703 195.653 603.713 192.74C600.723 189.75 596.89 188.255 592.213 188.255C587.383 188.255 583.435 189.75 580.368 192.74C577.378 195.653 575.883 199.448 575.883 204.125C575.883 206.732 576.573 209.223 577.953 211.6C579.41 213.977 581.365 215.893 583.818 217.35C586.348 218.73 589.147 219.42 592.213 219.42ZM658.095 174.685C663.998 174.685 669.096 175.988 673.39 178.595C677.683 181.125 680.941 184.575 683.165 188.945C685.388 193.315 686.5 198.145 686.5 203.435C686.5 205.045 686.385 206.655 686.155 208.265H644.065C644.371 211.945 645.981 214.82 648.895 216.89C651.808 218.96 655.296 219.995 659.36 219.995C662.12 219.995 664.42 219.612 666.26 218.845C668.176 218.078 669.863 216.928 671.32 215.395C671.473 215.088 671.55 214.897 671.55 214.82C671.55 214.513 671.435 214.207 671.205 213.9C670.975 213.517 670.745 213.248 670.515 213.095L671.895 211.37L684.66 221.375L683.395 223.1C682.245 222.41 681.44 222.333 680.98 222.87C675.613 229.31 668.406 232.53 659.36 232.53C653.533 232.53 648.396 231.265 643.95 228.735C639.503 226.128 636.053 222.678 633.6 218.385C631.223 214.015 630.035 209.185 630.035 203.895C630.035 198.298 631.223 193.277 633.6 188.83C635.976 184.383 639.273 180.933 643.49 178.48C647.783 175.95 652.651 174.685 658.095 174.685ZM672.7 197.57C672.393 194.427 670.783 191.782 667.87 189.635C665.033 187.412 661.813 186.3 658.21 186.3C654.606 186.3 651.501 187.412 648.895 189.635C646.288 191.782 644.716 194.427 644.18 197.57H672.7ZM726.021 174.8V192.28H723.836C723.836 191.743 723.721 191.245 723.491 190.785C723.261 190.248 722.954 189.98 722.571 189.98H715.096V226.55C715.096 226.933 715.364 227.24 715.901 227.47C716.438 227.7 716.974 227.815 717.511 227.815V230H698.766V227.815C699.303 227.815 699.839 227.7 700.376 227.47C700.913 227.24 701.181 226.933 701.181 226.55V189.98H695.661C695.278 189.98 694.971 190.248 694.741 190.785C694.511 191.245 694.396 191.743 694.396 192.28H692.211V174.8H694.396C694.396 175.337 694.511 175.873 694.741 176.41C694.971 176.87 695.278 177.1 695.661 177.1H701.181V163.645C701.181 163.262 700.913 162.955 700.376 162.725C699.839 162.495 699.303 162.38 698.766 162.38V160.195H717.511V162.38C716.974 162.38 716.438 162.495 715.901 162.725C715.364 162.955 715.096 163.262 715.096 163.645V177.1H722.571C722.954 177.1 723.261 176.87 723.491 176.41C723.721 175.873 723.836 175.337 723.836 174.8H726.021ZM755.919 231.725C752.009 231.725 748.214 230.92 744.534 229.31C740.931 227.7 737.289 225.4 733.609 222.41C733.456 222.257 733.264 222.18 733.034 222.18C732.421 222.18 731.769 222.525 731.079 223.215L729.469 221.835L740.969 208.725L742.579 210.22C742.273 210.603 742.004 211.063 741.774 211.6C741.621 212.137 741.698 212.558 742.004 212.865C744.534 215.165 746.873 216.89 749.019 218.04C751.243 219.113 753.543 219.65 755.919 219.65C761.823 219.65 764.774 217.695 764.774 213.785C764.774 212.022 763.854 210.68 762.014 209.76C760.251 208.763 757.261 207.69 753.044 206.54C747.601 205.083 743.653 203.205 741.199 200.905C738.746 198.528 737.519 195.308 737.519 191.245C737.519 186.415 739.091 182.505 742.234 179.515C745.378 176.448 749.671 174.915 755.114 174.915C757.874 174.915 760.366 175.337 762.589 176.18C764.813 177.023 767.496 178.518 770.639 180.665C770.716 180.742 770.869 180.78 771.099 180.78C771.483 180.78 771.866 180.665 772.249 180.435C772.633 180.205 772.901 179.975 773.054 179.745L774.779 181.24L764.429 192.97L762.819 191.59C763.126 191.283 763.318 190.9 763.394 190.44C763.548 189.903 763.471 189.482 763.164 189.175C761.784 188.102 760.443 187.297 759.139 186.76C757.913 186.223 756.533 185.955 754.999 185.955C753.389 185.955 752.124 186.262 751.204 186.875C750.284 187.488 749.824 188.408 749.824 189.635C749.824 190.632 750.093 191.437 750.629 192.05C751.166 192.663 752.124 193.277 753.504 193.89C754.961 194.503 757.146 195.27 760.059 196.19C765.426 197.8 769.643 200.062 772.709 202.975C775.776 205.812 777.309 209.338 777.309 213.555C777.309 219.765 775.354 224.365 771.444 227.355C767.534 230.268 762.359 231.725 755.919 231.725Z" fill="white"/>
<path d="M153.3 272C131.9 272 112.2 267 94.2 257C76.2 246.8 62 232.8 51.6 215C41.2 197 36 177 36 155C36 131.8 41.2 111.3 51.6 93.4999C62 75.6999 76 61.9999 93.6 52.3999C111.2 42.5999 130.5 37.7 151.5 37.7C171.7 37.7 188.7 41.3 202.5 48.5C216.5 55.4999 229.7 65.3999 242.1 78.1999C242.5 78.6 243.1 78.8 243.9 78.8C245.1 78.8 247.2 77.9 250.2 76.1L253.8 80.6L212.4 113.3L208.8 108.8C210 108 210.9 107 211.5 105.8C212.3 104.4 212.3 103.4 211.5 102.8C203.1 94.6 194.3 88.3999 185.1 84.1999C176.1 79.8 165.1 77.6 152.1 77.6C138.5 77.6 126 81 114.6 87.7999C103.2 94.3999 94.2 103.6 87.6 115.4C81 127.2 77.7 140.4 77.7 155C77.7 169 81.2 181.8 88.2 193.4C95.2 204.8 104.5 213.8 116.1 220.4C127.7 227 140.1 230.3 153.3 230.3C165.7 230.3 176.3 228.2 185.1 224C193.9 219.6 202.2 213.1 210 204.5L210.6 203.3C210.6 202.3 210.1 201.2 209.1 200C208.3 198.6 207.4 197.6 206.4 197L210.3 192.8L255 230.3L251.4 234.8C250.2 233.8 248.7 232.9 246.9 232.1C245.1 231.3 243.9 231.3 243.3 232.1C230.7 245.7 217.5 255.8 203.7 262.4C189.9 268.8 173.1 272 153.3 272Z" fill="white"/>
<rect x="101" y="102" width="106" height="106" rx="53" fill="white"/>
<path d="M109.764 160.832L130.512 142.1L135.468 147.728L121.692 160.496L136.14 173.012L130.764 178.976L109.764 160.832ZM149.457 193.172L141.897 191.828L160.125 118.328L167.685 119.672L149.457 193.172ZM197.904 160.244L177.156 178.976L172.2 173.348L185.976 160.58L171.528 148.064L176.904 142.1L197.904 160.244Z" fill="#111111"/>
</svg>
