<svg width="270" height="270" viewBox="0 0 270 270" fill="none" xmlns="http://www.w3.org/2000/svg">
<rect width="270" height="270" rx="21" fill="#111111"/>
<path d="M137.3 253C115.9 253 96.2 248 78.2 238C60.2 227.8 46 213.8 35.6 196C25.2 178 20 158 20 136C20 112.8 25.2 92.3 35.6 74.5C46 56.7 60 43 77.6 33.4C95.2 23.6 114.5 18.7 135.5 18.7C155.7 18.7 172.7 22.3 186.5 29.5C200.5 36.5 213.7 46.4 226.1 59.2C226.5 59.6 227.1 59.8 227.9 59.8C229.1 59.8 231.2 58.9 234.2 57.1L237.8 61.6L196.4 94.3L192.8 89.8C194 89 194.9 88 195.5 86.8C196.3 85.4 196.3 84.4 195.5 83.8C187.1 75.6 178.3 69.4 169.1 65.2C160.1 60.8 149.1 58.6 136.1 58.6C122.5 58.6 110 62 98.6 68.8C87.2 75.4 78.2 84.6 71.6 96.4C65 108.2 61.7 121.4 61.7 136C61.7 150 65.2 162.8 72.2 174.4C79.2 185.8 88.5 194.8 100.1 201.4C111.7 208 124.1 211.3 137.3 211.3C149.7 211.3 160.3 209.2 169.1 205C177.9 200.6 186.2 194.1 194 185.5L194.6 184.3C194.6 183.3 194.1 182.2 193.1 181C192.3 179.6 191.4 178.6 190.4 178L194.3 173.8L239 211.3L235.4 215.8C234.2 214.8 232.7 213.9 230.9 213.1C229.1 212.3 227.9 212.3 227.3 213.1C214.7 226.7 201.5 236.8 187.7 243.4C173.9 249.8 157.1 253 137.3 253Z" fill="white"/>
<rect x="84" y="80" width="108" height="108" rx="54" fill="white"/>
<path d="M91.953 138.564L114.924 117.825L120.411 124.056L105.159 138.192L121.155 152.049L115.203 158.652L91.953 138.564ZM135.898 174.369L127.528 172.881L147.709 91.506L156.079 92.994L135.898 174.369ZM189.537 137.913L166.566 158.652L161.079 152.421L176.331 138.285L160.335 124.428L166.287 117.825L189.537 137.913Z" fill="#111111"/>
</svg>
