<svg width="1704" height="494" viewBox="0 0 1704 494" fill="none" xmlns="http://www.w3.org/2000/svg">
<rect y="13" width="1704" height="481" rx="21" fill="#111111"/>
<path d="M388.15 407.5C377.45 407.5 367.6 405 358.6 400C349.6 394.9 342.5 387.9 337.3 379C332.1 370 329.5 360 329.5 349C329.5 337.4 332.1 327.15 337.3 318.25C342.5 309.35 349.5 302.5 358.3 297.7C367.1 292.8 376.75 290.35 387.25 290.35C397.35 290.35 405.85 292.15 412.75 295.75C419.75 299.25 426.35 304.2 432.55 310.6C432.75 310.8 433.05 310.9 433.45 310.9C434.05 310.9 435.1 310.45 436.6 309.55L438.4 311.8L417.7 328.15L415.9 325.9C416.5 325.5 416.95 325 417.25 324.4C417.65 323.7 417.65 323.2 417.25 322.9C413.05 318.8 408.65 315.7 404.05 313.6C399.55 311.4 394.05 310.3 387.55 310.3C380.75 310.3 374.5 312 368.8 315.4C363.1 318.7 358.6 323.3 355.3 329.2C352 335.1 350.35 341.7 350.35 349C350.35 356 352.1 362.4 355.6 368.2C359.1 373.9 363.75 378.4 369.55 381.7C375.35 385 381.55 386.65 388.15 386.65C394.35 386.65 399.65 385.6 404.05 383.5C408.45 381.3 412.6 378.05 416.5 373.75L416.8 373.15C416.8 372.65 416.55 372.1 416.05 371.5C415.65 370.8 415.2 370.3 414.7 370L416.65 367.9L439 386.65L437.2 388.9C436.6 388.4 435.85 387.95 434.95 387.55C434.05 387.15 433.45 387.15 433.15 387.55C426.85 394.35 420.25 399.4 413.35 402.7C406.45 405.9 398.05 407.5 388.15 407.5ZM482.447 407.8C475.047 407.8 468.497 406.25 462.797 403.15C457.197 399.95 452.797 395.6 449.597 390.1C446.497 384.6 444.947 378.4 444.947 371.5C444.947 364.7 446.497 358.5 449.597 352.9C452.797 347.3 457.247 342.9 462.947 339.7C468.647 336.4 475.147 334.75 482.447 334.75C489.447 334.75 495.797 336.35 501.497 339.55C507.197 342.65 511.697 347 514.997 352.6C518.297 358.1 519.947 364.4 519.947 371.5C519.947 377.7 518.447 383.6 515.447 389.2C512.547 394.7 508.247 399.2 502.547 402.7C496.847 406.1 490.147 407.8 482.447 407.8ZM482.447 390.55C488.347 390.55 493.097 388.85 496.697 385.45C500.397 381.95 502.247 377.45 502.247 371.95C502.247 366.25 500.397 361.55 496.697 357.85C493.097 354.15 488.347 352.3 482.447 352.3C476.947 352.3 472.347 354.15 468.647 357.85C464.947 361.45 463.097 366 463.097 371.5C463.097 377.3 464.947 381.95 468.647 385.45C472.347 388.85 476.947 390.55 482.447 390.55ZM608.494 401.5C608.494 402 608.844 402.4 609.544 402.7C610.344 403 611.094 403.15 611.794 403.15V406H590.344V400.75C584.344 405.65 577.194 408.1 568.894 408.1C561.494 408.1 554.894 406.6 549.094 403.6C543.294 400.6 538.744 396.35 535.444 390.85C532.144 385.35 530.494 379 530.494 371.8C530.494 364.5 532.144 358.05 535.444 352.45C538.844 346.75 543.444 342.35 549.244 339.25C555.144 336.05 561.694 334.45 568.894 334.45C577.194 334.45 584.344 336.8 590.344 341.5V298C590.344 297.5 589.994 297.1 589.294 296.8C588.594 296.5 587.894 296.35 587.194 296.35V293.5H611.644V296.35C610.944 296.35 610.244 296.5 609.544 296.8C608.844 297.1 608.494 297.5 608.494 298V401.5ZM569.794 392.05C573.694 392.05 577.244 391.15 580.444 389.35C583.744 387.55 586.294 385.15 588.094 382.15C589.994 379.05 590.944 375.8 590.944 372.4C590.944 366.3 588.944 361.3 584.944 357.4C581.044 353.4 575.994 351.4 569.794 351.4C563.594 351.4 558.494 353.35 554.494 357.25C550.594 361.05 548.644 366 548.644 372.1C548.644 378.2 550.644 383.05 554.644 386.65C558.744 390.25 563.794 392.05 569.794 392.05ZM661.137 333.85C668.837 333.85 675.487 335.55 681.087 338.95C686.687 342.25 690.937 346.75 693.837 352.45C696.737 358.15 698.187 364.45 698.187 371.35C698.187 373.45 698.037 375.55 697.737 377.65H642.837C643.237 382.45 645.337 386.2 649.137 388.9C652.937 391.6 657.487 392.95 662.787 392.95C666.387 392.95 669.387 392.45 671.787 391.45C674.287 390.45 676.487 388.95 678.387 386.95C678.587 386.55 678.687 386.3 678.687 386.2C678.687 385.8 678.537 385.4 678.237 385C677.937 384.5 677.637 384.15 677.337 383.95L679.137 381.7L695.787 394.75L694.137 397C692.637 396.1 691.587 396 690.987 396.7C683.987 405.1 674.587 409.3 662.787 409.3C655.187 409.3 648.487 407.65 642.687 404.35C636.887 400.95 632.387 396.45 629.187 390.85C626.087 385.15 624.537 378.85 624.537 371.95C624.537 364.65 626.087 358.1 629.187 352.3C632.287 346.5 636.587 342 642.087 338.8C647.687 335.5 654.037 333.85 661.137 333.85ZM680.187 363.7C679.787 359.6 677.687 356.15 673.887 353.35C670.187 350.45 665.987 349 661.287 349C656.587 349 652.537 350.45 649.137 353.35C645.737 356.15 643.687 359.6 642.987 363.7H680.187ZM797.928 408.85C789.328 408.85 781.328 406.85 773.928 402.85C766.528 398.75 759.378 393.15 752.478 386.05C752.278 385.85 752.028 385.75 751.728 385.75C750.828 385.75 749.828 386.3 748.728 387.4L746.778 385.3L767.628 365.65L769.578 367.75C768.978 368.25 768.428 368.95 767.928 369.85C767.428 370.75 767.328 371.4 767.628 371.8C776.928 383.6 787.078 389.5 798.078 389.5C801.878 389.5 805.278 388.75 808.278 387.25C811.378 385.75 813.778 383.85 815.478 381.55C817.178 379.15 818.028 376.7 818.028 374.2C818.028 368.3 812.878 363.45 802.578 359.65L784.128 352.75C776.728 350.05 770.928 346.35 766.728 341.65C762.628 336.95 760.578 331.3 760.578 324.7C760.578 318.2 762.078 312.55 765.078 307.75C768.178 302.85 772.528 299.1 778.128 296.5C783.728 293.9 790.228 292.6 797.628 292.6C804.628 292.6 810.478 293.7 815.178 295.9C819.978 298 825.078 301.25 830.478 305.65C830.578 305.75 830.778 305.8 831.078 305.8C831.578 305.8 832.128 305.65 832.728 305.35C833.428 304.95 833.978 304.55 834.378 304.15L836.328 306.1L817.728 324.4L815.778 322.3C816.278 321.8 816.628 321.25 816.828 320.65C817.128 319.95 817.078 319.45 816.678 319.15C810.178 313.95 803.728 311.35 797.328 311.35C792.228 311.35 788.178 312.55 785.178 314.95C782.178 317.25 780.678 320.2 780.678 323.8C780.678 327 781.478 329.45 783.078 331.15C784.778 332.85 787.328 334.3 790.728 335.5L808.878 342.1C815.178 344.4 820.428 346.85 824.628 349.45C828.828 351.95 832.178 355.3 834.678 359.5C837.178 363.6 838.428 368.75 838.428 374.95C838.428 380.95 836.828 386.55 833.628 391.75C830.528 396.85 825.878 401 819.678 404.2C813.578 407.3 806.328 408.85 797.928 408.85ZM925.441 401.5C925.441 402 925.791 402.4 926.491 402.7C927.291 403 928.091 403.15 928.891 403.15V406H902.491V403.15C903.291 403.15 904.041 403 904.741 402.7C905.541 402.4 905.941 402 905.941 401.5V370.3C905.941 365.2 904.691 360.85 902.191 357.25C899.691 353.55 895.941 351.7 890.941 351.7C885.841 351.7 881.691 353.4 878.491 356.8C875.391 360.2 873.841 365.1 873.841 371.5V401.5C873.841 402 874.191 402.4 874.891 402.7C875.691 403 876.491 403.15 877.291 403.15V406H851.041V403.15C851.841 403.15 852.591 403 853.291 402.7C854.091 402.4 854.491 402 854.491 401.5V341.5C854.491 341 854.091 340.6 853.291 340.3C852.591 340 851.891 339.85 851.191 339.85V337H873.841V343.15C876.441 340.75 879.491 338.9 882.991 337.6C886.591 336.2 890.241 335.5 893.941 335.5C900.341 335.5 905.891 336.85 910.591 339.55C915.391 342.25 919.041 345.9 921.541 350.5C924.141 355 925.441 360.05 925.441 365.65V401.5ZM957.89 324.4C954.69 324.4 951.94 323.3 949.64 321.1C947.44 318.9 946.34 316.15 946.34 312.85C946.34 309.75 947.44 307.1 949.64 304.9C951.94 302.6 954.69 301.45 957.89 301.45C961.09 301.45 963.79 302.6 965.99 304.9C968.19 307.1 969.29 309.75 969.29 312.85C969.29 316.15 968.19 318.9 965.99 321.1C963.79 323.3 961.09 324.4 957.89 324.4ZM948.14 341.5C948.14 341 947.74 340.6 946.94 340.3C946.24 340 945.54 339.85 944.84 339.85V337H970.64V339.85C969.94 339.85 969.19 340 968.39 340.3C967.69 340.6 967.34 341 967.34 341.5V401.5C967.34 402 967.69 402.4 968.39 402.7C969.19 403 969.94 403.15 970.64 403.15V406H944.84V403.15C945.54 403.15 946.24 403 946.94 402.7C947.74 402.4 948.14 402 948.14 401.5V341.5ZM1031.99 335.2C1039.09 335.2 1045.44 336.75 1051.04 339.85C1056.64 342.85 1060.99 347.15 1064.09 352.75C1067.29 358.25 1068.89 364.6 1068.89 371.8C1068.89 379.1 1067.29 385.5 1064.09 391C1060.99 396.5 1056.59 400.75 1050.89 403.75C1045.29 406.75 1038.84 408.25 1031.54 408.25C1023.24 408.25 1015.79 405.45 1009.19 399.85V445.15C1009.19 445.65 1009.54 446.05 1010.24 446.35C1011.04 446.65 1011.79 446.8 1012.49 446.8V449.65H987.139V446.8C987.839 446.8 988.539 446.65 989.239 446.35C990.039 446.05 990.439 445.65 990.439 445.15V341.5C990.439 341 990.039 340.6 989.239 340.3C988.539 340 987.839 339.85 987.139 339.85V337H1009.19V343.3C1015.99 337.9 1023.59 335.2 1031.99 335.2ZM1030.04 392.2C1035.94 392.2 1040.89 390.4 1044.89 386.8C1048.89 383.2 1050.89 378.3 1050.89 372.1C1050.89 366.1 1048.94 361.2 1045.04 357.4C1041.14 353.5 1036.14 351.55 1030.04 351.55C1023.74 351.55 1018.59 353.5 1014.59 357.4C1010.69 361.2 1008.74 366.15 1008.74 372.25C1008.74 375.65 1009.64 378.9 1011.44 382C1013.34 385.1 1015.89 387.6 1019.09 389.5C1022.39 391.3 1026.04 392.2 1030.04 392.2ZM1126.47 335.2C1133.57 335.2 1139.92 336.75 1145.52 339.85C1151.12 342.85 1155.47 347.15 1158.57 352.75C1161.77 358.25 1163.37 364.6 1163.37 371.8C1163.37 379.1 1161.77 385.5 1158.57 391C1155.47 396.5 1151.07 400.75 1145.37 403.75C1139.77 406.75 1133.32 408.25 1126.02 408.25C1117.72 408.25 1110.27 405.45 1103.67 399.85V445.15C1103.67 445.65 1104.02 446.05 1104.72 446.35C1105.52 446.65 1106.27 446.8 1106.97 446.8V449.65H1081.62V446.8C1082.32 446.8 1083.02 446.65 1083.72 446.35C1084.52 446.05 1084.92 445.65 1084.92 445.15V341.5C1084.92 341 1084.52 340.6 1083.72 340.3C1083.02 340 1082.32 339.85 1081.62 339.85V337H1103.67V343.3C1110.47 337.9 1118.07 335.2 1126.47 335.2ZM1124.52 392.2C1130.42 392.2 1135.37 390.4 1139.37 386.8C1143.37 383.2 1145.37 378.3 1145.37 372.1C1145.37 366.1 1143.42 361.2 1139.52 357.4C1135.62 353.5 1130.62 351.55 1124.52 351.55C1118.22 351.55 1113.07 353.5 1109.07 357.4C1105.17 361.2 1103.22 366.15 1103.22 372.25C1103.22 375.65 1104.12 378.9 1105.92 382C1107.82 385.1 1110.37 387.6 1113.57 389.5C1116.87 391.3 1120.52 392.2 1124.52 392.2ZM1210.45 333.85C1218.15 333.85 1224.8 335.55 1230.4 338.95C1236 342.25 1240.25 346.75 1243.15 352.45C1246.05 358.15 1247.5 364.45 1247.5 371.35C1247.5 373.45 1247.35 375.55 1247.05 377.65H1192.15C1192.55 382.45 1194.65 386.2 1198.45 388.9C1202.25 391.6 1206.8 392.95 1212.1 392.95C1215.7 392.95 1218.7 392.45 1221.1 391.45C1223.6 390.45 1225.8 388.95 1227.7 386.95C1227.9 386.55 1228 386.3 1228 386.2C1228 385.8 1227.85 385.4 1227.55 385C1227.25 384.5 1226.95 384.15 1226.65 383.95L1228.45 381.7L1245.1 394.75L1243.45 397C1241.95 396.1 1240.9 396 1240.3 396.7C1233.3 405.1 1223.9 409.3 1212.1 409.3C1204.5 409.3 1197.8 407.65 1192 404.35C1186.2 400.95 1181.7 396.45 1178.5 390.85C1175.4 385.15 1173.85 378.85 1173.85 371.95C1173.85 364.65 1175.4 358.1 1178.5 352.3C1181.6 346.5 1185.9 342 1191.4 338.8C1197 335.5 1203.35 333.85 1210.45 333.85ZM1229.5 363.7C1229.1 359.6 1227 356.15 1223.2 353.35C1219.5 350.45 1215.3 349 1210.6 349C1205.9 349 1201.85 350.45 1198.45 353.35C1195.05 356.15 1193 359.6 1192.3 363.7H1229.5ZM1299.05 334V356.8H1296.2C1296.2 356.1 1296.05 355.45 1295.75 354.85C1295.45 354.15 1295.05 353.8 1294.55 353.8H1284.8V401.5C1284.8 402 1285.15 402.4 1285.85 402.7C1286.55 403 1287.25 403.15 1287.95 403.15V406H1263.5V403.15C1264.2 403.15 1264.9 403 1265.6 402.7C1266.3 402.4 1266.65 402 1266.65 401.5V353.8H1259.45C1258.95 353.8 1258.55 354.15 1258.25 354.85C1257.95 355.45 1257.8 356.1 1257.8 356.8H1254.95V334H1257.8C1257.8 334.7 1257.95 335.4 1258.25 336.1C1258.55 336.7 1258.95 337 1259.45 337H1266.65V319.45C1266.65 318.95 1266.3 318.55 1265.6 318.25C1264.9 317.95 1264.2 317.8 1263.5 317.8V314.95H1287.95V317.8C1287.25 317.8 1286.55 317.95 1285.85 318.25C1285.15 318.55 1284.8 318.95 1284.8 319.45V337H1294.55C1295.05 337 1295.45 336.7 1295.75 336.1C1296.05 335.4 1296.2 334.7 1296.2 334H1299.05ZM1338.05 408.25C1332.95 408.25 1328 407.2 1323.2 405.1C1318.5 403 1313.75 400 1308.95 396.1C1308.75 395.9 1308.5 395.8 1308.2 395.8C1307.4 395.8 1306.55 396.25 1305.65 397.15L1303.55 395.35L1318.55 378.25L1320.65 380.2C1320.25 380.7 1319.9 381.3 1319.6 382C1319.4 382.7 1319.5 383.25 1319.9 383.65C1323.2 386.65 1326.25 388.9 1329.05 390.4C1331.95 391.8 1334.95 392.5 1338.05 392.5C1345.75 392.5 1349.6 389.95 1349.6 384.85C1349.6 382.55 1348.4 380.8 1346 379.6C1343.7 378.3 1339.8 376.9 1334.3 375.4C1327.2 373.5 1322.05 371.05 1318.85 368.05C1315.65 364.95 1314.05 360.75 1314.05 355.45C1314.05 349.15 1316.1 344.05 1320.2 340.15C1324.3 336.15 1329.9 334.15 1337 334.15C1340.6 334.15 1343.85 334.7 1346.75 335.8C1349.65 336.9 1353.15 338.85 1357.25 341.65C1357.35 341.75 1357.55 341.8 1357.85 341.8C1358.35 341.8 1358.85 341.65 1359.35 341.35C1359.85 341.05 1360.2 340.75 1360.4 340.45L1362.65 342.4L1349.15 357.7L1347.05 355.9C1347.45 355.5 1347.7 355 1347.8 354.4C1348 353.7 1347.9 353.15 1347.5 352.75C1345.7 351.35 1343.95 350.3 1342.25 349.6C1340.65 348.9 1338.85 348.55 1336.85 348.55C1334.75 348.55 1333.1 348.95 1331.9 349.75C1330.7 350.55 1330.1 351.75 1330.1 353.35C1330.1 354.65 1330.45 355.7 1331.15 356.5C1331.85 357.3 1333.1 358.1 1334.9 358.9C1336.8 359.7 1339.65 360.7 1343.45 361.9C1350.45 364 1355.95 366.95 1359.95 370.75C1363.95 374.45 1365.95 379.05 1365.95 384.55C1365.95 392.65 1363.4 398.65 1358.3 402.55C1353.2 406.35 1346.45 408.25 1338.05 408.25Z" fill="white"/>
<path d="M855.2 234C840.933 234 827.8 230.667 815.8 224C803.8 217.2 794.333 207.867 787.4 196C780.467 184 777 170.667 777 156C777 140.533 780.467 126.867 787.4 115C794.333 103.133 803.667 94 815.4 87.6C827.133 81.0667 840 77.8 854 77.8C867.467 77.8 878.8 80.2 888 85C897.333 89.6667 906.133 96.2667 914.4 104.8C914.667 105.067 915.067 105.2 915.6 105.2C916.4 105.2 917.8 104.6 919.8 103.4L922.2 106.4L894.6 128.2L892.2 125.2C893 124.667 893.6 124 894 123.2C894.533 122.267 894.533 121.6 894 121.2C888.4 115.733 882.533 111.6 876.4 108.8C870.4 105.867 863.067 104.4 854.4 104.4C845.333 104.4 837 106.667 829.4 111.2C821.8 115.6 815.8 121.733 811.4 129.6C807 137.467 804.8 146.267 804.8 156C804.8 165.333 807.133 173.867 811.8 181.6C816.467 189.2 822.667 195.2 830.4 199.6C838.133 204 846.4 206.2 855.2 206.2C863.467 206.2 870.533 204.8 876.4 202C882.267 199.067 887.8 194.733 893 189L893.4 188.2C893.4 187.533 893.067 186.8 892.4 186C891.867 185.067 891.267 184.4 890.6 184L893.2 181.2L923 206.2L920.6 209.2C919.8 208.533 918.8 207.933 917.6 207.4C916.4 206.867 915.6 206.867 915.2 207.4C906.8 216.467 898 223.2 888.8 227.6C879.6 231.867 868.4 234 855.2 234Z" fill="white"/>
<rect x="820" y="121" width="71" height="71" rx="35.5" fill="white"/>
<path d="M827.176 158.888L841.008 146.4L844.312 150.152L835.128 158.664L844.76 167.008L841.176 170.984L827.176 158.888ZM853.638 180.448L848.598 179.552L860.75 130.552L865.79 131.448L853.638 180.448ZM885.936 158.496L872.104 170.984L868.8 167.232L877.984 158.72L868.352 150.376L871.936 146.4L885.936 158.496Z" fill="#111111"/>
</svg>
